<svg xmlns="http://www.w3.org/2000/svg" viewBox="0 0 61.34 18.19"><defs><style>.cls-1{fill:#fff;}</style></defs><g id="Layer_2" data-name="Layer 2"><g id="Layer_1-2" data-name="Layer 1"><g id="Gruppe_2533" data-name="Gruppe 2533"><path id="Pfad_3417" data-name="Pfad 3417" class="cls-1" d="M60.43,12.15l.77-1.74H57.1a2.43,2.43,0,0,0-2.68,2.14c0,.1,0,.2,0,.3a2.17,2.17,0,0,0,2,2.31h2.22a.63.63,0,0,1,.7.57v.07a.63.63,0,0,1-.63.63s-.05,0-.07,0h-4v1.74h4A2.43,2.43,0,0,0,61.33,16c0-.11,0-.23,0-.35a2.13,2.13,0,0,0-2-2.25,2,2,0,0,0-.42,0H57.07a.64.64,0,0,1-.69-.58s0,0,0-.07a.63.63,0,0,1,.63-.63h3.43Zm-11.16.63a.61.61,0,0,1,.62-.63h3.42l.78-1.74H50a2.41,2.41,0,0,0-2.67,2.14,1.51,1.51,0,0,0,0,.3,2.18,2.18,0,0,0,2,2.31h2.22a.63.63,0,0,1,.7.57v.07a.64.64,0,0,1-.63.64h-4.1v1.74h4A2.42,2.42,0,0,0,54.21,16a2.11,2.11,0,0,0,0-.35,2.13,2.13,0,0,0-2-2.25,2.1,2.1,0,0,0-.43,0H50a.64.64,0,0,1-.69-.58.17.17,0,0,1,0-.07Zm-9,5.39h6.33V16.43H42.29V15.11h4.26v-1.7H42.3V12.15h4.35V10.41H40.32v7.76Zm-.31,0-2.52-2.83a2.41,2.41,0,0,0,2-2.42,2.44,2.44,0,0,0-2.38-2.52,1.61,1.61,0,0,0-.31,0H32.52v7.76h2V15.42h.76l2.33,2.75Zm-3.38-4.43H34.49V12.15h2.14a.81.81,0,0,1,.91.7.34.34,0,0,1,0,.1C37.55,13.39,37.24,13.74,36.63,13.74Zm-5-.71a2.5,2.5,0,0,0-2.36-2.63h-4.7v7.76h2V15.64h2.33a2.56,2.56,0,0,0,2.75-2.35,2.35,2.35,0,0,0,0-.26Zm-2,0a.84.84,0,0,1-.8.87H26.58V12.15h2.19a.85.85,0,0,1,.92.77V13Zm-5.25,5.13-3.12-3.91,3.1-3.85H22l-1.83,2.38-1.83-2.38H15.88L19,14.3l-3.09,3.87H18.3l1.83-2.4L22,18.17Zm-15,0h6.32V16.43H11.37V15.11h4.25v-1.7H11.37V12.15h4.35V10.41H9.4v7.76Z"/><path id="Pfad_3418" data-name="Pfad 3418" class="cls-1" d="M60.18,7.78V0h-2V4.83L55.12,0H52.63V7.78h2v-5l3.2,5Zm-10,0h2.22L49.1,0H46.54L43.22,7.78h2.17L46,6.19h3.53l.65,1.59ZM48.86,4.5H46.71l1.08-2.66L48.86,4.5ZM42.51,1.81H44.6V0H42.36A3.53,3.53,0,0,0,38.6,3.29a3.35,3.35,0,0,0,0,.55V4c0,2.38,1.37,3.83,3.6,3.83h.16L43.18,6h-.64a1.86,1.86,0,0,1-2-1.72,2.3,2.3,0,0,1,0-.37V3.84a1.83,1.83,0,0,1,1.62-2,1.63,1.63,0,0,1,.31,0Zm-6.83,6h2V0h-2V7.78Zm-.31,0L32.85,5a2.42,2.42,0,0,0,2-2.43A2.45,2.45,0,0,0,32.51,0H27.88V7.78h2V5h.77l2.32,2.76ZM32,3.34H29.85V1.75H32a.82.82,0,0,1,.91.7v.1c0,.45-.31.79-.91.79ZM20.43,7.78h6.33V6H22.4V4.71h4.25V3H22.4V1.75h4.36V0H20.43V7.78Zm-3.26,0h1.95V0H16L14.29,5,12.54,0H9.41V7.78h1.95V2l2,5.75h1.73l2-5.75V7.78ZM7,7.78H9.21L5.88,0H3.33L0,7.78H2.17l.64-1.59H6.34L7,7.78ZM5.65,4.5H3.49L4.57,1.84,5.65,4.5Z"/></g></g></g></svg>