<svg xmlns="http://www.w3.org/2000/svg" viewBox="0 0 88.64 14.05"><defs><style>.cls-1{fill:#fff;}.cls-2{fill:#ed4135;}</style></defs><g id="Layer_2" data-name="Layer 2"><g id="Layer_1-2" data-name="Layer 1"><polygon class="cls-1" points="88.64 0.01 85.41 0.01 85.41 5.51 84.1 7.1 82.78 5.51 82.78 0.01 79.55 0.01 79.55 6.67 82.48 10.21 82.48 14.01 85.71 14.01 85.71 10.21 88.64 6.67 88.64 0.01"/><rect class="cls-1" x="42.76" y="0.08" width="3.23" height="13.96"/><polygon class="cls-1" points="73.52 13.95 70.29 13.95 70.29 1.62 71.9 0 77.91 0 77.91 3.23 73.52 3.23 73.52 13.95"/><polygon class="cls-1" points="63.09 10.79 63.09 8.67 66.63 8.67 66.63 5.45 63.09 5.45 63.09 3.24 64.35 3.23 68.09 3.25 68.1 0.01 64.35 0 61.47 0.01 59.86 1.63 59.86 12.4 61.48 14.01 64.34 14.01 68.09 14.03 68.1 10.8 64.34 10.79 63.09 10.79"/><polygon class="cls-1" points="54.16 8.87 52.85 10.46 51.53 8.87 51.53 0.08 48.31 0.08 48.31 10.03 51.59 14.01 54.11 14.01 57.39 10.03 57.39 0.08 54.16 0.08 54.16 8.87"/><path class="cls-1" d="M5.39.05H0v14H8.25l1.61-1.62V1.66L8.24.05ZM6.64,10.82H3.24V3.24h3.4Z"/><polygon class="cls-1" points="16.43 3.23 20.18 3.25 20.19 0.01 16.43 0 13.55 0.01 11.94 1.63 11.94 12.4 13.56 14.01 16.42 14.01 20.18 14.03 20.19 10.8 16.43 10.79 15.18 10.79 15.18 8.67 18.72 8.67 18.72 5.45 15.18 5.45 15.18 3.24 16.43 3.23"/><polygon class="cls-1" points="25.24 0.04 22.01 0.04 22.01 12.42 23.63 14.03 29.64 14.03 29.64 10.8 25.24 10.8 25.24 0.04"/><polygon class="cls-1" points="37.35 0.08 37.35 5.45 34.45 5.45 34.45 0.04 31.22 0.04 31.22 14.04 34.45 14.04 34.45 8.67 37.35 8.67 37.35 14.04 40.58 14.04 40.58 0.08 37.35 0.08"/><rect class="cls-2" x="0.02" y="10.82" width="3.22" height="3.22"/><rect class="cls-2" x="85.42" y="0.01" width="3.22" height="3.22"/></g></g></svg>