<svg xmlns="http://www.w3.org/2000/svg" viewBox="0 0 52.7 21.6"><defs><style>.cls-1{fill:#fff;}.cls-2{fill:#4285f4;}.cls-3{fill:#34a853;}.cls-4{fill:#fbbc04;}.cls-5{fill:#ea4335;}</style></defs><g id="Layer_2" data-name="Layer 2"><g id="Layer_1-2" data-name="Layer 1"><path class="cls-1" d="M23.87,10.49v6.37h-2V1.14h5.36A4.83,4.83,0,0,1,30.68,2.5a4.55,4.55,0,0,1,.23,6.42c-.08.08-.15.16-.23.23a4.79,4.79,0,0,1-3.47,1.34Zm0-7.42V8.56h3.39a2.74,2.74,0,0,0,2-4.6l0,0a2.62,2.62,0,0,0-2-.83H23.87Z"/><path class="cls-1" d="M36.78,5.75A5,5,0,0,1,40.31,7a4.25,4.25,0,0,1,1.3,3.28v6.63H39.67V15.37h-.08a3.87,3.87,0,0,1-3.34,1.84,4.39,4.39,0,0,1-3-1.05,3.42,3.42,0,0,1-1.2-2.64,3.19,3.19,0,0,1,1.27-2.65,5.27,5.27,0,0,1,3.37-1,5.89,5.89,0,0,1,3,.66v-.47a2.3,2.3,0,0,0-.83-1.78,2.85,2.85,0,0,0-2-.74A3.08,3.08,0,0,0,34.21,9L32.43,7.86a5,5,0,0,1,4.35-2.11m-2.62,7.82a1.61,1.61,0,0,0,.67,1.31,2.5,2.5,0,0,0,1.57.53,3.24,3.24,0,0,0,2.28-.94,3,3,0,0,0,1-2.22A4.14,4.14,0,0,0,37,11.5a3.39,3.39,0,0,0-2,.59,1.78,1.78,0,0,0-.83,1.48Z"/><polygon class="cls-1" points="52.7 6.1 45.95 21.6 43.87 21.6 46.37 16.18 41.93 6.1 44.13 6.1 47.34 13.83 47.38 13.83 50.5 6.1 52.7 6.1"/><path class="cls-2" d="M17.71,9.24a11.33,11.33,0,0,0-.16-1.84H9v3.48h4.88a4.21,4.21,0,0,1-1.8,2.75v2.25H15a8.82,8.82,0,0,0,2.69-6.64"/><path class="cls-3" d="M9,18.07a8.68,8.68,0,0,0,6-2.18l-2.91-2.26A5.48,5.48,0,0,1,4.54,12,5.39,5.39,0,0,1,4,10.76H1v2.33a9,9,0,0,0,8.07,5"/><path class="cls-4" d="M4,10.76A5.39,5.39,0,0,1,4,7.3V5H1a9,9,0,0,0,0,8.11Z"/><path class="cls-5" d="M9,3.58A4.88,4.88,0,0,1,12.5,4.93l2.57-2.58A8.67,8.67,0,0,0,9,0,9,9,0,0,0,1,5L4,7.3A5.39,5.39,0,0,1,9,3.58"/></g></g></svg>