<svg xmlns="http://www.w3.org/2000/svg" viewBox="0 0 51 39.57"><defs><style>.cls-1{fill:#fff;}.cls-2{fill:#ff5f00;}.cls-3{fill:#eb001b;}.cls-4{fill:#f79e1b;}</style></defs><g id="Layer_2" data-name="Layer 2"><g id="Layer_1-2" data-name="Layer 1"><g id="Gruppe_2509" data-name="Gruppe 2509"><path id="Pfad_3364" data-name="Pfad 3364" class="cls-1" d="M11,37.37A1.25,1.25,0,0,1,12.15,36h.1a1.24,1.24,0,0,1,1.26,1.24v.1a1.25,1.25,0,0,1-1.17,1.33h-.09A1.26,1.26,0,0,1,11,37.47a.31.31,0,0,1,0-.1m3.39,0v-2.1h-.91v.51a1.59,1.59,0,0,0-1.33-.61A2.09,2.09,0,0,0,10,37.27v.1a2.1,2.1,0,0,0,2,2.2h.09A1.6,1.6,0,0,0,13.46,39v.51h.91Zm30.75,0A1.26,1.26,0,0,1,46.29,36h.1a1.25,1.25,0,0,1,1.27,1.24.38.38,0,0,1,0,.1,1.24,1.24,0,0,1-1.16,1.33h-.1a1.26,1.26,0,0,1-1.27-1.24v-.1m3.39,0V33.59H47.6v2.19a1.56,1.56,0,0,0-1.32-.61,2.08,2.08,0,0,0-2.09,2.1v.1a2.1,2.1,0,0,0,2,2.2h.09A1.57,1.57,0,0,0,47.6,39v.51h.91ZM25.66,36a1,1,0,0,1,1.06,1H24.55a1.08,1.08,0,0,1,1.11-1m0-.81a2,2,0,0,0-2.09,2,1.41,1.41,0,0,0,0,.2,2.05,2.05,0,0,0,1.92,2.19h.22A2.56,2.56,0,0,0,27.46,39L27,38.31a2,2,0,0,1-1.22.44,1.17,1.17,0,0,1-1.25-1h3.11c0-.11,0-.23,0-.35a2,2,0,0,0-1.81-2.19h-.18m11,2.2A1.26,1.26,0,0,1,37.84,36h.1a1.26,1.26,0,0,1,1.27,1.25s0,.06,0,.09A1.25,1.25,0,0,1,38,38.71h-.1a1.26,1.26,0,0,1-1.27-1.24v-.1m3.39,0V35.28h-.91v.5a1.62,1.62,0,0,0-1.32-.61,2.1,2.1,0,0,0-2.1,2.1v.1a2.11,2.11,0,0,0,2,2.2h.1A1.62,1.62,0,0,0,39.15,39v.51h.91Zm-8.53,0a2.11,2.11,0,0,0,2,2.2h.2a2.18,2.18,0,0,0,1.51-.5l-.44-.74a1.8,1.8,0,0,1-1.09.38,1.26,1.26,0,0,1-1.27-1.24.34.34,0,0,1,0-.1A1.25,1.25,0,0,1,33.63,36h.11a1.8,1.8,0,0,1,1.09.38l.44-.74a2.18,2.18,0,0,0-1.51-.5,2.12,2.12,0,0,0-2.23,2v.21m11.74-2.2a1.22,1.22,0,0,0-1.1.61v-.5h-.9v4.18h.91V37.12c0-.7.3-1.08.89-1.08a1.37,1.37,0,0,1,.57.1l.28-.86a2.06,2.06,0,0,0-.65-.11m-24.4.43a3.17,3.17,0,0,0-1.7-.43c-1.07,0-1.75.5-1.75,1.34,0,.68.51,1.1,1.45,1.23l.43.06c.5.07.73.2.73.44s-.33.51-1,.51a2.24,2.24,0,0,1-1.39-.44l-.43.71a3,3,0,0,0,1.81.54C18.28,39.56,19,39,19,38.2s-.55-1.12-1.46-1.26l-.43-.06c-.4-.05-.71-.13-.71-.41s.3-.49.8-.49a2.7,2.7,0,0,1,1.3.36Zm11.75-.43a1.2,1.2,0,0,0-1.1.61v-.51h-.9v4.19h.91V37.11c0-.69.3-1.08.89-1.08a1.59,1.59,0,0,1,.57.1l.28-.85a1.82,1.82,0,0,0-.65-.12m-7.77.11H21.36V34h-.91v1.27H19.6v.83h.85V38c0,1,.37,1.55,1.45,1.55A2.18,2.18,0,0,0,23,39.24l-.27-.78a1.72,1.72,0,0,1-.8.23c-.46,0-.6-.28-.6-.7V36.1h1.49ZM9.24,39.45V36.83A1.56,1.56,0,0,0,7.8,35.16H7.6a1.61,1.61,0,0,0-1.47.75,1.55,1.55,0,0,0-1.39-.75,1.38,1.38,0,0,0-1.22.62v-.51H2.61v4.18h.91V37.13A1,1,0,0,1,4.36,36h.19c.6,0,.91.39.91,1.1v2.33h.92V37.13A1,1,0,0,1,7.23,36a1,1,0,0,1,.17,0c.62,0,.92.39.92,1.1v2.33Z"/></g><path id="Pfad_3365" data-name="Pfad 3365" class="cls-2" d="M32.4,28.17H18.6V3.38H32.4Z"/><g id="Gruppe_2510" data-name="Gruppe 2510"><path id="Pfad_3366" data-name="Pfad 3366" class="cls-3" d="M19.49,15.77a15.72,15.72,0,0,1,6-12.4,15.77,15.77,0,1,0-9.75,28.16,15.68,15.68,0,0,0,9.75-3.37,15.71,15.71,0,0,1-6-12.39"/></g><g id="Gruppe_2511" data-name="Gruppe 2511"><path id="Pfad_3367" data-name="Pfad 3367" class="cls-4" d="M51,15.77a15.77,15.77,0,0,1-25.51,12.4,15.78,15.78,0,0,0,0-24.8A15.77,15.77,0,0,1,51,15.77"/></g></g></g></svg>