<svg xmlns="http://www.w3.org/2000/svg" viewBox="0 0 62.79 20.25"><defs><style>.cls-1{fill:#02b9ef;}.cls-2{fill:#fff;}</style></defs><g id="Layer_2" data-name="Layer 2"><g id="Layer_1-2" data-name="Layer 1"><path class="cls-1" d="M49.15,4.28l.52-.42a3.85,3.85,0,0,1,5.67.45c.15.19.23.2.39,0s.22-.2.32-.32a3.8,3.8,0,0,1,4.3-.87,3.81,3.81,0,0,1,2.43,3.66c0,3.73,0,7.44,0,11.17a2,2,0,0,1-2.13,2.16c-.52,0-1,0-1.56,0s-.69-.12-.69-.68c0-3.63,0-7.27,0-10.91V8.12c0-.84-.35-1.19-1.16-1.23A1.18,1.18,0,0,0,56,8c0,.17,0,.35,0,.52V18a2,2,0,0,1-2.17,2.17c-.7,0-1.65.31-2-.14s-.12-1.31-.12-2V8.31c0-1.14-.74-1.72-1.7-1.33a1.27,1.27,0,0,0-.79,1.35c0,3,0,6,0,9v.72A2,2,0,0,1,47,20.13c-.52,0-1,0-1.56,0s-.73-.11-.72-.71c0-5.1,0-10.2,0-15.32,0-.22,0-.43,0-.65s.09-.38.37-.38c1.2,0,2.38,0,3.58,0,.29,0,.44.08.41.41A7,7,0,0,0,49.15,4.28Z"/><path class="cls-2" d="M21.62,11.31v5.33c0,2.31-1.22,3.51-3.53,3.52-1,0-2,0-3.05,0a3.54,3.54,0,0,1-3.67-3.44,43.44,43.44,0,0,1,0-4.42,3.75,3.75,0,0,1,3.85-3.61h1.68c.55,0,.76-.32.74-.84s-.23-.76-.75-.73H15.13a2,2,0,0,1-2.21-2.21c0-.57-.26-1.34.12-1.67s1.06-.11,1.62-.11H19a2.48,2.48,0,0,1,2.61,2.61C21.63,7.59,21.62,9.46,21.62,11.31Zm-4,2.95v-.65c0-1.32,0-1.32-1.33-1.27a1,1,0,0,0-1,1.05c0,.55,0,1.08,0,1.63,0,.93.43,1.18,1.78,1.22,1,0,.5-.68.59-1.07S17.63,14.56,17.65,14.26ZM33.18,9.9c0,2,0,4,0,6,0,1.54-.39,2.93-1.87,3.74a4.1,4.1,0,0,1-1.93.52c-1.49,0-3,0-4.48,0-.36,0-.44-.13-.42-.46,0-.54,0-1.07,0-1.62a1.89,1.89,0,0,1,1.86-1.87c.67,0,1.33,0,2,0s.84-.22.84-.8-.28-.81-.83-.82a10.69,10.69,0,0,1-2.71-.16,3.62,3.62,0,0,1-2.72-3.34c-.07-2.53,0-5.06,0-7.59,0-.29.1-.38.38-.37,1.07,0,2.12,0,3.18,0,.47,0,.41.25.41.54V9.38c0,.83.38,1.27,1.11,1.3s1.24-.33,1.24-1.2c0-1.92,0-3.85,0-5.78,0-.45.12-.58.57-.57.95,0,1.91.05,2.86,0,.52,0,.6.17.59.63C33.17,5.8,33.18,7.85,33.18,9.9ZM.09,12.85V6.48A3.09,3.09,0,0,1,3.45,3.13a23.14,23.14,0,0,1,4.08.11,3.37,3.37,0,0,1,2.83,3.45c0,1.88,0,3.77,0,5.65a3.56,3.56,0,0,1-3.75,3.87c-.72,0-1.43,0-2.14,0-.33,0-.47.09-.46.44,0,.52,0,1,0,1.56a1.9,1.9,0,0,1-1.92,1.94c-.65,0-1.47.27-1.88-.11S.1,18.86.09,18.24C.08,16.44.09,14.64.09,12.85ZM4,9.67V10.9c0,1.47,0,1.47,1.47,1.34a.92.92,0,0,0,.95-1c0-.73,0-1.47,0-2.2.08-2.1-.31-1.89-2-1.91-.31,0-.41.09-.41.41C4,8.24,4,9,4,9.67Z"/><path class="cls-1" d="M36.86,12.87c0-1.72,0-3.46,0-5.19,0-.4-.09-.57-.53-.56-.59,0-1.37.19-1.69-.09s-.09-1.18-.15-1.81V5.09c0-.61-.19-1.32.07-1.78s1-.16,1.61-.31a4.68,4.68,0,0,0,2.61-1.8A3,3,0,0,1,40.6,0c.4-.08.65,0,.62.49,0,.73,0,1.47,0,2.21,0,.31.1.42.41.4.52,0,1,0,1.56,0,.31,0,.42.1.4.42,0,1.06,0,2.11,0,3.18,0,.3-.08.45-.4.41H43c-.58,0-1.37-.26-1.67.13s-.1,1.12-.1,1.7c0,3.54,0,7.06,0,10.59,0,.49-.13.65-.62.61s-1,0-1.43,0a2.28,2.28,0,0,1-2.32-2.41Z"/></g></g></svg>