<svg xmlns="http://www.w3.org/2000/svg" viewBox="0 0 78.3 20.57"><defs><style>.cls-1{fill:#008c44;}.cls-2{fill:#f47920;}.cls-3{fill:#fff;}</style></defs><g id="Layer_2" data-name="Layer 2"><g id="Layer_1-2" data-name="Layer 1"><g id="g234"><path id="path236" class="cls-1" d="M73.88,1.51l4.42,8.77L69,19.06Z"/></g><g id="g238"><path id="path240" class="cls-2" d="M70.82,1.51l4.41,8.77L66,19.06Z"/></g><g id="g242"><path id="path244" class="cls-3" d="M0,15.87,4.4,0h7c2.2,0,3.67.35,4.41,1.07s.89,1.87.44,3.5A5.94,5.94,0,0,1,15.05,7,5.77,5.77,0,0,1,12.84,8.5a1.93,1.93,0,0,1,1.49,1.11A4.15,4.15,0,0,1,14.26,12l-.54,2.22v.06c-.16.62-.11.95.14,1l-.16.59H8.94c0-.38,0-.71.07-1a5.85,5.85,0,0,1,.12-.66l.45-1.59a2.4,2.4,0,0,0,0-1.73c-.21-.34-.68-.5-1.42-.5h-2L4.66,15.87Zm7.18-9H9.32A3.16,3.16,0,0,0,11,6.49a1.9,1.9,0,0,0,.75-1.15c.15-.55.11-.94-.11-1.16A2.47,2.47,0,0,0,10,3.85H8Z"/></g><g id="g246"><path id="path248" class="cls-3" d="M29.38,4.16,26.13,15.87H22.18l.49-1.72a7.9,7.9,0,0,1-2.12,1.53,5.15,5.15,0,0,1-2.25.51,3.53,3.53,0,0,1-1.67-.36,2.28,2.28,0,0,1-1-1.06,3,3,0,0,1-.26-1.52,17.44,17.44,0,0,1,.64-3l1.68-6.07H22l-1.68,6.05a3.52,3.52,0,0,0-.19,1.84c.13.34.46.52,1,.52A1.83,1.83,0,0,0,22.5,12a4.18,4.18,0,0,0,.9-1.78l1.67-6Z"/></g><g id="g250"><path id="path252" class="cls-3" d="M27.81,15.87,32.21,0h6a14.66,14.66,0,0,1,3.11.25,3.92,3.92,0,0,1,1.74.82,3.22,3.22,0,0,1,1,1.84,6,6,0,0,1-.23,2.61A7.49,7.49,0,0,1,41.3,9.6,7.38,7.38,0,0,1,36.71,11H33.88l-1.35,4.86ZM35,7.13h1.52a4.49,4.49,0,0,0,2.08-.35,2.05,2.05,0,0,0,.84-1.26c.17-.61.13-1-.13-1.27a3.1,3.1,0,0,0-1.89-.36H35.85Z"/></g><g id="g254"><path id="path256" class="cls-3" d="M49,15.87l0-1.11a7.89,7.89,0,0,1-2.11,1.16,6.66,6.66,0,0,1-2.26.37,3,3,0,0,1-2.56-1,3.06,3.06,0,0,1-.24-2.75A4.33,4.33,0,0,1,43.53,10,9.9,9.9,0,0,1,47.6,8.8c.24,0,.56-.07,1-.12,1.4-.17,2.19-.54,2.36-1.15.09-.34,0-.58-.17-.73a2.46,2.46,0,0,0-2.22,0,1.7,1.7,0,0,0-.67.88H43.66a4.88,4.88,0,0,1,2.32-3,9.08,9.08,0,0,1,4.59-1A9.81,9.81,0,0,1,53,4a3.6,3.6,0,0,1,1.56.72A2.14,2.14,0,0,1,55.26,6,5,5,0,0,1,55,8l-1.81,6.53a1.31,1.31,0,0,0,0,.58.72.72,0,0,0,.24.41l-.1.33Zm1-5.23a15.91,15.91,0,0,1-1.79.55c-1.17.32-1.82.73-2,1.25a.8.8,0,0,0,.1.78,1.07,1.07,0,0,0,.83.27A2.6,2.6,0,0,0,48.91,13a3.35,3.35,0,0,0,1-1.71c0-.17.08-.29.1-.38Z"/></g><g id="g258"><path id="path260" class="cls-3" d="M53.33,20.48l1-3.46h1.24a1.88,1.88,0,0,0,1-.23A1.29,1.29,0,0,0,57,16a2.35,2.35,0,0,0,.09-.5,3.41,3.41,0,0,0,0-.64L56.4,4.16h4.37l-.06,7.1,3.81-7.1h4.06L61.84,15.81c-.77,1.3-1.32,2.2-1.67,2.69a5.93,5.93,0,0,1-1,1.11,3.75,3.75,0,0,1-1.39.74,8.61,8.61,0,0,1-2.29.22c-.3,0-.64,0-1,0l-1.15-.07"/></g></g></g></svg>