<svg xmlns="http://www.w3.org/2000/svg" viewBox="0 0 99.02 29.41"><defs><style>.cls-1{fill:#fff;}.cls-2{fill:#694d93;}.cls-3{fill:#19ef41;}.cls-4{fill:#18ef41;}</style></defs><g id="Layer_2" data-name="Layer 2"><g id="Layer_1-2" data-name="Layer 1"><path class="cls-1" d="M9.87,0a13,13,0,0,1,1.4.52c.63.32,1.22.7,1.83,1.05,3.78,2.18,7.55,4.37,11.33,6.54a3.65,3.65,0,0,1,2,2.84,3.54,3.54,0,0,1-1.75,3.71c-2,1.23-4.13,2.4-6.19,3.59L9,23.75a2.11,2.11,0,0,0-1.12,1.73A1.48,1.48,0,0,0,8.57,27a1.5,1.5,0,0,0,1.63,0l3.43-2,9.74-5.63a1.53,1.53,0,0,0,.05-2.75c-.35-.22-.34-.51,0-.71l1.25-.73a.42.42,0,0,1,.63.08,3.76,3.76,0,0,1-.67,5.94c-2.24,1.32-4.51,2.61-6.76,3.92s-4.37,2.53-6.57,3.78a8.51,8.51,0,0,1-1.25.48l-.14.06H8.79l-.27-.1a3.68,3.68,0,0,1-1.75-.93,3.77,3.77,0,0,1-1.16-2.84v-18a1.92,1.92,0,0,0-.55-1.44A1.75,1.75,0,0,0,3.2,5.57a1.6,1.6,0,0,0-1,1.63V22.3A1.54,1.54,0,0,0,4.6,23.71c.34-.19.6,0,.6.35s0,1,0,1.47a.43.43,0,0,1-.35.48,3.77,3.77,0,0,1-4.72-2.6A3.06,3.06,0,0,0,0,23V6.43a.9.9,0,0,0,.08-.21A3.58,3.58,0,0,1,2.2,3.59a3.86,3.86,0,0,1,3.72.31q7.7,4.47,15.42,8.91a2.18,2.18,0,0,0,.47.21,2,2,0,0,0,2.26-.84,1.55,1.55,0,0,0-.74-2.13L10.24,2.49a1.53,1.53,0,0,0-2.4,1.34c0,.39-.27.54-.61.35L6,3.44c-.27-.15-.33-.27-.25-.56A3.69,3.69,0,0,1,8.6.09,2.34,2.34,0,0,0,8.84,0Zm-2,14.7c0,1.46,0,2.91,0,4.37a1.55,1.55,0,0,0,2.4,1.38l2.4-1.39,5.19-3a1.54,1.54,0,0,0,0-2.71l-.38-.22L10.29,9a1.77,1.77,0,0,0-1-.28,1.52,1.52,0,0,0-1.4,1.54Z"/><path class="cls-2" d="M99,17.43h0v1.62h0Z"/><path class="cls-1" d="M68.12,17.8A2.1,2.1,0,0,1,70,17.14a2.36,2.36,0,0,1,1.71,1l.28-.27a2.94,2.94,0,0,1,3.23-.4,2.39,2.39,0,0,1,1.19,1.92,4.91,4.91,0,0,1,.06.86c0,1.45,0,2.91,0,4.37,0,.32,0,.35-.35.35H74.84c-.3,0-.35-.05-.35-.35,0-1.34,0-2.67,0-4a5.88,5.88,0,0,0-.1-.93.8.8,0,0,0-.77-.73,1,1,0,0,0-1,.55,3,3,0,0,0-.24,1c0,1.27,0,2.54,0,3.81,0,.69,0,.64-.65.64h-1c-.28,0-.33-.06-.34-.33,0-1.25,0-2.5,0-3.75a5.75,5.75,0,0,0-.13-1.17.85.85,0,0,0-.83-.76,1,1,0,0,0-1,.67,4.73,4.73,0,0,0-.21,1.23c0,1.25,0,2.5,0,3.75,0,.32,0,.36-.35.36h-1.3c-.21,0-.31-.08-.31-.3v-7c0-.22.08-.31.3-.3.39,0,.77,0,1.16,0S68.05,17.33,68.12,17.8Z"/><path class="cls-1" d="M83.87,21.91l1.41.78a.23.23,0,0,1,.11.34,4,4,0,0,1-5.49,1.61,3.57,3.57,0,0,1-1.74-2.73,5.1,5.1,0,0,1,.24-2.51,3.42,3.42,0,0,1,3.19-2.27,3.44,3.44,0,0,1,3.78,3.37c0,.37,0,.75,0,1.15H80.19a1.71,1.71,0,0,0,1.65,1.71,1.6,1.6,0,0,0,1.4-.61C83.46,22.48,83.66,22.2,83.87,21.91ZM83.32,20a1.44,1.44,0,0,0-1.56-1.1A1.49,1.49,0,0,0,80.34,20Z"/><path class="cls-1" d="M31.36,19.39v5.17c0,.33,0,.37-.36.37H29.65c-.23,0-.31-.09-.31-.31q0-5.64,0-11.28c0-.21.08-.3.29-.3,1.83,0,3.66,0,5.5,0,.21,0,.28.1.28.3,0,.43,0,.87,0,1.3,0,.24-.1.31-.32.31H31.38v2.53h3.54c.3,0,.34,0,.34.34s0,.85,0,1.27c0,.22-.08.31-.3.3h-3.6Z"/><path class="cls-1" d="M89.07,17.83a2.92,2.92,0,0,1,3-.5,2.31,2.31,0,0,1,1.54,2.14,16.76,16.76,0,0,1,.06,1.74c0,1.12,0,2.24,0,3.36,0,.33,0,.36-.37.36H92c-.23,0-.33-.08-.32-.32,0-1.31,0-2.63,0-3.95a4.8,4.8,0,0,0-.13-1.06.76.76,0,0,0-.73-.65,2.81,2.81,0,0,0-.71,0,.94.94,0,0,0-.87.75,7.26,7.26,0,0,0-.19,1.4c0,1.16,0,2.32,0,3.48,0,.31,0,.35-.34.35h-1.3c-.22,0-.33-.07-.33-.31q0-3.5,0-7c0-.22.1-.3.31-.29.43,0,.85,0,1.28,0s.37,0,.38.37A.78.78,0,0,0,89.07,17.83Z"/><path class="cls-1" d="M51.33,17.33h1.51c.27,0,.32.05.32.33s0,.8,0,1.2c0,.22-.08.32-.3.31H51.31v5.39c0,.34,0,.37-.36.37H49.67c-.27,0-.33-.06-.33-.33V19.21l-.05,0c-.6,0-.54,0-.54-.59v-.93c0-.3,0-.33.32-.33h.27v-.27c0-1,0-2,0-3a2.34,2.34,0,0,1,3.17-2.19c.6.16.6.16.6.78v1.06c0,.26-.11.31-.35.22a3.86,3.86,0,0,0-.86-.26c-.33-.05-.49.1-.55.42a5.18,5.18,0,0,0-.09.78c0,.8,0,1.6,0,2.4C51.31,17.27,51.32,17.28,51.33,17.33Z"/><path class="cls-1" d="M36.82,19.89V17.65c0-.28,0-.32.33-.32h1.28c.32,0,.35,0,.35.35,0,1.33,0,2.66,0,4a2.92,2.92,0,0,0,.15.93,1.07,1.07,0,0,0,1.14.75,1.08,1.08,0,0,0,1.15-.73,2.53,2.53,0,0,0,.15-.82c0-1.37,0-2.74,0-4.12,0-.33,0-.36.37-.36h1.3c.21,0,.29.08.29.29,0,1.45,0,2.89,0,4.34a3,3,0,0,1-1.13,2.52,3.55,3.55,0,0,1-2.56.63,3.18,3.18,0,0,1-1.95-.87A2.94,2.94,0,0,1,36.83,22c0-.71,0-1.42,0-2.13Z"/><path class="cls-1" d="M45.32,18.44V12.3c0-.32,0-.36.37-.36H47c.21,0,.32.08.32.3q0,6.2,0,12.39c0,.22-.1.3-.31.3H45.64c-.27,0-.32-.06-.32-.34Z"/><path class="cls-1" d="M60.19,18.43v6.14c0,.32,0,.36-.37.36H58.54c-.23,0-.31-.1-.31-.32V12.27c0-.28.05-.33.33-.33h1.3c.27,0,.33.06.33.34Z"/><path class="cls-1" d="M62.2,18.44V12.31c0-.33,0-.37.37-.37h1.28c.21,0,.32.07.32.3q0,6.2,0,12.39c0,.22-.1.3-.31.3H62.53c-.27,0-.33-.06-.33-.34Z"/><path class="cls-1" d="M99,17.43v1.63a1,1,0,0,1-.28.11h-1v5.41c0,.31,0,.35-.36.35H96.07c-.28,0-.33-.06-.33-.33V19.17h-.43c-.2,0-.3-.07-.3-.28,0-.43,0-.85,0-1.28,0-.19.08-.29.28-.28h.45V15c0-.22.08-.32.3-.31h1.35c.24,0,.31.11.31.33,0,.78,0,1.56,0,2.37h1A1.3,1.3,0,0,1,99,17.43Z"/><path class="cls-1" d="M56.26,21.13V24.6c0,.27,0,.33-.33.33H54.61c-.22,0-.31-.08-.31-.3v-7c0-.22.08-.31.3-.3q.67,0,1.35,0c.24,0,.31.09.31.32Z"/><path class="cls-3" d="M56.8,14.26a1.55,1.55,0,1,1-1.54-1.54A1.55,1.55,0,0,1,56.8,14.26Z"/><path class="cls-1" d="M32.45,4.84l-.64.38A2.65,2.65,0,0,1,31.64,5a.72.72,0,0,0-1-.09.42.42,0,0,0,0,.69,2.51,2.51,0,0,0,.46.24c.24.11.49.21.73.34a1.31,1.31,0,0,1,.69,1.42,1.39,1.39,0,0,1-.94,1.21,1.53,1.53,0,0,1-2.15-1.35l.67-.15c.17,0,.15.11.17.21a.68.68,0,0,0,.78.63.69.69,0,0,0,.63-.47.68.68,0,0,0-.22-.77,4.37,4.37,0,0,0-.61-.31l-.53-.25a1.18,1.18,0,0,1-.68-1.27,1.28,1.28,0,0,1,1-1A1.48,1.48,0,0,1,32.45,4.84Z"/><path class="cls-1" d="M39,8.61c0,.55,0,1.08,0,1.6,0,.18-.05.24-.23.24-.57,0-.57,0-.57-.57,0-1.28,0-2.56,0-3.85,0-.19.05-.26.25-.24s.21,0,.31,0a1.11,1.11,0,0,1,.27.12A3.75,3.75,0,0,1,40,5.73a1.41,1.41,0,0,1,1.34,1.32,2.57,2.57,0,0,1-.06.83A1.4,1.4,0,0,1,39,8.61Zm.75-2.18a.8.8,0,0,0-.8.87.79.79,0,1,0,1.57,0A.83.83,0,0,0,39.78,6.43Z"/><path class="cls-1" d="M33.24,8.84V3.63c.23,0,.45,0,.66,0,.05,0,.11.14.11.22,0,.6,0,1.21,0,1.81V6a1.43,1.43,0,0,1,1-.22.91.91,0,0,1,.85.84c.05.71,0,1.42.05,2.13a.17.17,0,0,1-.13.13c-.21,0-.42,0-.66,0,0-.42,0-.81,0-1.2s0-.55,0-.83a.39.39,0,0,0-.38-.38.48.48,0,0,0-.57.3,1.82,1.82,0,0,0-.09.51q0,.68,0,1.35c0,.21-.06.27-.26.25Z"/><path class="cls-1" d="M54,8.84h-.89c-.06,0-.11-.08-.16-.14l-.71-.9-.18-.19c0,.38,0,.7,0,1s-.06.25-.24.23h-.53V3.63c.22,0,.43,0,.65,0a.31.31,0,0,1,.11.22c0,.83,0,1.67,0,2.5v.3c.28-.27.51-.51.76-.74a.49.49,0,0,1,.3-.12c.26,0,.53,0,.82,0L52.72,7.12l1.33,1.64Z"/><path class="cls-1" d="M57.09,7.53H55a.62.62,0,0,0,.42.63c.51.18.79-.13,1-.53l.34.18c.37.2.37.2.11.53a1.59,1.59,0,0,1-1.79.5,1.45,1.45,0,0,1-1-1.42,2.74,2.74,0,0,1,.08-.7,1.4,1.4,0,0,1,1.57-1,1.38,1.38,0,0,1,1.29,1.39C57.1,7.24,57.09,7.37,57.09,7.53ZM55,6.85h1.21a.58.58,0,0,0-.59-.42A.63.63,0,0,0,55,6.85Z"/><path class="cls-1" d="M47.45,7.36a1.64,1.64,0,1,1-1.61-1.65A1.61,1.61,0,0,1,47.45,7.36Zm-.81,0a.82.82,0,0,0-.82-.9.82.82,0,0,0-.84.88.82.82,0,0,0,.82.9A.8.8,0,0,0,46.64,7.33Z"/><path class="cls-1" d="M50.47,6.93c-.48-.5-1-.77-1.52-.16a.93.93,0,0,0,0,1.16.71.71,0,0,0,.79.25,3.48,3.48,0,0,0,.75-.44v.92s-.07.06-.11.08a1.7,1.7,0,0,1-1.79-.13A1.49,1.49,0,0,1,48,7.05a1.56,1.56,0,0,1,1.18-1.28,1.69,1.69,0,0,1,1.19.1.32.32,0,0,1,.16.23c0,.26,0,.52,0,.79Z"/><path class="cls-1" d="M58.67,4.71V5.79h.52v.74h-.51V8.84c-.24,0-.47,0-.69,0,0,0-.1-.13-.1-.2,0-.69,0-1.38,0-2.06-.32-.08-.3-.08-.29-.6,0-.23.16-.16.29-.19,0-.29,0-.58,0-.86s0-.22.21-.21Z"/><path class="cls-1" d="M42,8.84v-3c.28,0,.56-.08.85.1a1,1,0,0,1,1.18,0c-.09.19-.18.39-.28.57a.23.23,0,0,1-.19.06c-.42-.23-.76,0-.77.5s0,.94,0,1.4,0,.37-.38.38Z"/><path class="cls-1" d="M36.68,8.84v-3h.66s.11.09.11.14c0,.92,0,1.83,0,2.75,0,.05-.1.14-.16.14A6.05,6.05,0,0,1,36.68,8.84Z"/><path class="cls-1" d="M37.05,5.12a.49.49,0,0,1-.49-.5.5.5,0,0,1,1,0A.49.49,0,0,1,37.05,5.12Z"/><path class="cls-4" d="M9.87,14.68V12c0-.6.43-.85,1-.55l4.73,2.73a.57.57,0,0,1,0,1.07L10.77,18a.56.56,0,0,1-.89-.52C9.87,16.52,9.87,15.6,9.87,14.68Z"/></g></g></svg>