<svg xmlns="http://www.w3.org/2000/svg" viewBox="0 0 50.63 16.35"><defs><style>.cls-1{fill:#fff;}</style></defs><g id="Layer_2" data-name="Layer 2"><g id="Layer_1-2" data-name="Layer 1"><path id="Pfad_3368" data-name="Pfad 3368" class="cls-1" d="M26.18,5.23c0,2.28,2,3.55,3.58,4.3s2.13,1.27,2.12,2c0,1.07-1.27,1.53-2.45,1.55a8.54,8.54,0,0,1-4.2-1l-.74,3.47a12.44,12.44,0,0,0,4.55.84c4.3,0,7.11-2.12,7.12-5.41,0-4.18-5.77-4.4-5.73-6.27,0-.57.55-1.17,1.74-1.32a7.68,7.68,0,0,1,4,.7L36.92.7A10.91,10.91,0,0,0,33.09,0c-4,0-6.89,2.15-6.91,5.23M43.83.29a1.85,1.85,0,0,0-1.74,1.16L36,16.1h4.29l.86-2.36h5.24l.5,2.36h3.79L47.33.29h-3.5m.61,4.27,1.23,5.94H42.28l2.16-5.94M21,.29,17.6,16.1h4.09L25.07.29H21m-6.05,0L10.67,11.05,9,1.9A1.91,1.91,0,0,0,7.06.29H.1L0,.75A17.43,17.43,0,0,1,4,2.09,1.75,1.75,0,0,1,5,3.48L8.27,16.1h4.32L19.22.29h-4.3"/></g></g></svg>